<?xml version="1.0" standalone="no"?>
<!DOCTYPE svg PUBLIC "-//W3C//DTD SVG 20010904//EN"
 "http://www.w3.org/TR/2001/REC-SVG-20010904/DTD/svg10.dtd">
<svg version="1.0" xmlns="http://www.w3.org/2000/svg"
 width="260.000000pt" height="260.000000pt" viewBox="0 0 260.000000 260.000000"
 preserveAspectRatio="xMidYMid meet">
<metadata>
Created by potrace 1.11, written by Peter Selinger 2001-2013
</metadata>
<g transform="translate(0.000000,260.000000) scale(0.100000,-0.100000)"
fill="#000000" stroke="none">
<path d="M1730 2542 c0 -32 5 -63 12 -70 7 -7 34 -12 60 -12 35 0 52 -5 64
-19 21 -24 61 -64 85 -85 23 -20 25 -78 3 -100 -10 -10 -34 -16 -67 -16 -67 0
-91 -14 -55 -30 15 -7 35 -32 48 -60 30 -65 54 -70 86 -19 27 43 52 49 101 24
15 -8 50 -17 76 -20 42 -6 51 -11 72 -45 13 -21 34 -41 45 -45 32 -10 40 -45
40 -181 0 -99 3 -124 14 -124 9 0 15 17 18 55 5 61 28 95 65 95 34 0 57 -34
63 -92 5 -51 22 -73 33 -44 3 8 3 85 0 170 l-6 156 -34 20 c-18 10 -33 26 -33
35 0 8 -18 26 -39 39 -22 14 -42 34 -46 46 -3 11 -20 27 -36 35 -16 9 -35 28
-44 44 -8 16 -24 33 -35 36 -12 4 -32 24 -45 45 -13 21 -33 41 -45 45 -11 3
-26 17 -33 30 -6 13 -28 34 -47 47 -28 19 -36 31 -38 61 l-3 37 -140 0 -139 0
0 -58z"/>
<path d="M287 2233 c-4 -3 -7 -278 -7 -610 l0 -604 22 -8 c13 -5 28 -7 33 -5
7 3 9 200 7 570 -2 397 1 570 9 580 18 22 67 27 94 10 l25 -16 0 -599 c0 -520
-2 -603 -16 -636 -8 -21 -13 -44 -10 -51 5 -12 132 -14 818 -12 l813 3 3 408
2 408 -26 24 c-30 28 -94 124 -94 141 0 26 -42 64 -71 64 -25 0 -33 -6 -44
-34 -8 -19 -30 -43 -50 -54 -19 -12 -35 -28 -35 -37 0 -8 -18 -26 -39 -39 -22
-14 -42 -34 -46 -46 -3 -11 -19 -27 -35 -35 -15 -8 -37 -30 -48 -50 -12 -19
-28 -35 -37 -35 -9 0 -25 -15 -35 -33 -11 -19 -32 -40 -46 -47 -14 -8 -32 -27
-40 -43 -8 -15 -26 -33 -40 -39 -14 -7 -32 -24 -40 -40 -8 -15 -27 -34 -42
-42 -16 -8 -33 -26 -40 -40 -6 -15 -23 -32 -37 -38 -14 -6 -34 -26 -45 -44
-11 -17 -32 -35 -46 -38 -16 -4 -30 -19 -40 -41 -11 -28 -20 -35 -42 -35 -35
0 -52 16 -52 52 0 22 8 32 40 48 27 14 40 27 40 41 0 12 12 27 30 37 17 9 36
30 43 45 9 21 23 31 54 39 55 14 73 33 47 53 -37 29 -92 35 -301 35 -200 0
-214 1 -233 20 -26 26 -25 62 1 86 19 17 42 19 272 22 139 2 263 0 276 -3 14
-4 40 -22 58 -42 39 -40 57 -38 67 8 7 36 32 69 52 69 6 0 21 16 33 35 11 19
31 40 45 46 14 7 30 24 36 39 7 16 24 33 38 39 15 6 35 25 44 41 9 17 27 35
40 41 13 5 31 23 40 40 10 16 34 37 53 45 32 13 36 18 33 47 -2 23 -12 37 -38
54 -19 12 -53 39 -76 60 -22 21 -60 49 -84 63 -24 14 -59 40 -77 58 l-34 32
-608 0 c-334 0 -611 -3 -614 -7z m1072 -184 c47 -17 57 -96 14 -114 -27 -11
-614 -5 -635 6 -22 12 -34 57 -21 78 23 37 51 41 334 41 175 0 288 -4 308 -11z
m-299 -179 c25 -25 25 -51 1 -81 -19 -23 -24 -24 -164 -24 -128 0 -147 2 -166
19 -26 24 -27 60 -1 86 18 18 33 20 165 20 132 0 147 -2 165 -20z m80 -160
c28 -28 25 -64 -6 -89 -25 -19 -40 -21 -195 -21 -175 0 -214 7 -225 42 -9 30
5 68 29 78 12 5 102 9 200 9 164 1 178 0 197 -19z"/>
<path d="M2032 2032 c-21 -16 -21 -19 -7 -40 24 -34 45 -28 45 12 0 43 -9 49
-38 28z"/>
<path d="M366 963 c-10 -25 11 -38 53 -34 10 1 8 8 -9 26 -28 29 -36 31 -44 8z"/>
<path d="M203 703 c-10 -4 -13 -84 -13 -354 l0 -349 1110 0 1110 0 0 349 c0
309 -2 350 -16 355 -19 7 -2173 7 -2191 -1z m2160 -55 c37 -44 7 -93 -65 -103
-59 -8 -100 6 -116 38 -18 38 2 79 43 89 49 11 118 -1 138 -24z m-2033 6 c20
-23 16 -75 -5 -90 -42 -31 -105 -3 -105 46 0 9 7 26 16 38 18 26 75 30 94 6z
m170 -16 c22 -40 -2 -82 -48 -86 -44 -4 -62 12 -62 57 0 47 16 63 60 59 25 -2
38 -10 50 -30z m152 15 c22 -20 24 -66 2 -87 -8 -9 -28 -16 -44 -16 -36 0 -60
24 -60 60 0 54 61 80 102 43z m162 1 c19 -18 21 -75 4 -92 -17 -17 -68 -15
-90 5 -22 20 -23 61 -1 85 20 22 66 24 87 2z m174 -16 c20 -43 -2 -82 -50 -86
-28 -2 -40 2 -52 20 -20 28 -20 48 0 76 24 34 84 28 102 -10z m162 0 c22 -40
-2 -82 -48 -86 -44 -4 -62 12 -62 57 0 47 16 63 60 59 25 -2 38 -10 50 -30z
m152 15 c22 -20 24 -66 2 -87 -8 -9 -28 -16 -44 -16 -36 0 -60 24 -60 60 0 54
61 80 102 43z m162 1 c19 -18 21 -75 4 -92 -17 -17 -68 -15 -90 5 -22 20 -23
61 -1 85 20 22 66 24 87 2z m174 -16 c20 -43 -2 -82 -50 -86 -28 -2 -40 2 -52
20 -9 12 -16 29 -16 38 0 9 7 26 16 38 24 34 84 28 102 -10z m162 0 c22 -40
-2 -82 -48 -86 -44 -4 -62 12 -62 57 0 47 16 63 60 59 25 -2 38 -10 50 -30z
m152 15 c22 -20 24 -66 2 -87 -8 -9 -28 -16 -44 -16 -36 0 -60 24 -60 60 0 54
61 80 102 43z m162 1 c19 -18 21 -75 4 -92 -17 -17 -68 -15 -90 5 -22 20 -23
61 -1 85 20 22 66 24 87 2z m-1718 -152 c23 -15 34 -50 24 -77 -22 -58 -160
-62 -190 -5 -16 29 -5 64 22 78 26 12 127 15 144 4z m178 -14 c33 -47 7 -98
-49 -98 -39 0 -55 16 -55 54 0 61 72 91 104 44z m158 5 c22 -20 24 -66 2 -87
-8 -9 -28 -16 -44 -16 -36 0 -60 23 -60 57 0 55 62 83 102 46z m162 1 c19 -18
21 -75 4 -92 -21 -21 -75 -15 -92 10 -21 30 -20 54 4 78 24 24 63 26 84 4z
m156 6 c51 -27 25 -110 -34 -110 -40 0 -59 20 -59 62 0 48 47 73 93 48z m174
-12 c33 -47 7 -98 -49 -98 -39 0 -55 16 -55 54 0 61 72 91 104 44z m158 5 c22
-20 24 -66 2 -87 -8 -9 -28 -16 -44 -16 -36 0 -60 23 -60 57 0 55 62 83 102
46z m162 1 c19 -18 21 -75 4 -92 -21 -21 -75 -15 -92 10 -21 30 -20 54 4 78
24 24 63 26 84 4z m156 6 c51 -27 25 -110 -34 -110 -40 0 -59 20 -59 62 0 48
47 73 93 48z m174 -12 c33 -47 7 -98 -49 -98 -39 0 -55 16 -55 54 0 61 72 91
104 44z m158 5 c22 -20 24 -66 2 -87 -8 -9 -28 -16 -44 -16 -36 0 -60 23 -60
57 0 55 62 83 102 46z m162 1 c19 -18 21 -75 4 -92 -21 -21 -75 -15 -92 10
-21 30 -20 54 4 78 24 24 63 26 84 4z m166 -4 c40 -40 13 -100 -45 -100 -34 0
-48 11 -59 47 -5 17 -1 29 18 48 30 30 59 32 86 5z m-1960 -158 c27 -22 29
-65 5 -92 -14 -16 -31 -20 -77 -20 -49 0 -63 4 -83 25 -14 13 -25 31 -25 40 0
9 11 27 25 40 20 20 34 25 78 25 38 0 62 -6 77 -18z m153 7 c28 -15 37 -28 37
-56 0 -30 -34 -63 -63 -63 -58 0 -78 91 -27 117 31 15 27 15 53 2z m185 -17
c21 -27 15 -70 -13 -88 -50 -33 -106 11 -91 71 11 44 74 54 104 17z m160 6 c6
-6 12 -24 12 -41 0 -60 -59 -88 -100 -47 -57 57 24 138 88 88z m157 -3 c14
-13 25 -31 25 -40 0 -18 -43 -65 -60 -65 -19 0 -49 20 -60 40 -19 35 16 86 63
89 4 1 19 -10 32 -24z m150 13 c14 -6 28 -22 32 -35 14 -58 -44 -100 -94 -68
-34 22 -30 84 7 102 30 15 24 15 55 1z m183 -16 c21 -27 15 -70 -13 -88 -50
-33 -106 11 -91 71 11 44 74 54 104 17z m160 6 c22 -19 15 -76 -13 -94 -39
-26 -95 4 -95 51 0 49 66 76 108 43z m157 -3 c14 -13 25 -31 25 -40 0 -18 -43
-65 -60 -65 -19 0 -49 20 -60 40 -19 35 16 86 63 89 4 1 19 -10 32 -24z m150
13 c14 -6 28 -22 32 -35 14 -58 -44 -100 -94 -68 -34 22 -30 84 7 102 30 15
24 15 55 1z m183 -16 c21 -27 15 -70 -13 -88 -50 -33 -106 11 -91 71 11 44 74
54 104 17z m160 6 c22 -19 15 -76 -13 -94 -39 -26 -95 4 -95 51 0 49 66 76
108 43z m147 10 c46 -21 45 -91 -2 -109 -33 -12 -60 -4 -79 25 -24 38 -1 78
53 95 1 1 14 -4 28 -11z m-474 -177 c24 -30 24 -56 -1 -81 -19 -19 -33 -20
-487 -20 -258 0 -473 4 -479 8 -40 26 -35 94 8 112 13 5 218 8 481 7 l459 -2
19 -24z m490 0 c24 -30 24 -56 -1 -81 -17 -17 -33 -20 -121 -20 -55 0 -109 4
-119 10 -23 12 -34 55 -20 81 17 32 48 39 149 36 84 -3 96 -5 112 -26z m-2031
3 c20 -23 16 -75 -5 -90 -62 -45 -139 32 -88 88 20 22 76 24 93 2z m170 -16
c13 -25 13 -31 0 -55 -19 -34 -69 -43 -94 -18 -19 19 -21 76 -4 93 7 7 29 12
48 10 25 -2 38 -10 50 -30z m160 13 c25 -47 -1 -101 -48 -101 -51 0 -77 52
-52 101 8 14 21 19 50 19 29 0 42 -5 50 -19z m158 7 c17 -17 15 -68 -5 -90 -9
-10 -29 -18 -44 -18 -49 0 -78 70 -43 104 18 19 75 21 92 4z m1216 -4 c36 -35
7 -104 -42 -104 -54 0 -81 62 -45 102 20 22 66 24 87 2z"/>
</g>
</svg>
