<?xml version="1.0" standalone="no"?>
<!DOCTYPE svg PUBLIC "-//W3C//DTD SVG 20010904//EN"
 "http://www.w3.org/TR/2001/REC-SVG-20010904/DTD/svg10.dtd">
<svg version="1.0" xmlns="http://www.w3.org/2000/svg"
 width="70.000000pt" height="70.000000pt" viewBox="0 0 70.000000 70.000000"
 preserveAspectRatio="xMidYMid meet">
<metadata>
Created by potrace 1.11, written by Peter Selinger 2001-2013
</metadata>
<g transform="translate(0.000000,70.000000) scale(0.100000,-0.100000)"
fill="#000000" stroke="none">
<path d="M460 680 c0 -11 6 -20 13 -20 18 0 61 -37 50 -43 -4 -2 -98 -4 -208
-5 -110 0 -211 -1 -225 -1 l-25 -1 0 -170 1 -170 31 -29 c23 -20 35 -25 42
-18 8 8 11 8 11 0 0 -12 18 -12 38 0 6 5 12 4 12 -2 0 -5 10 -7 22 -4 22 5 32
5 88 0 14 -2 35 1 48 5 12 4 22 4 22 -1 0 -9 55 -5 71 4 5 4 9 3 9 -2 0 -7 30
-8 96 -4 7 1 10 55 10 171 -1 104 3 171 9 173 18 6 36 -22 38 -59 1 -21 7 -39
14 -41 7 -3 10 3 6 15 -3 12 1 22 11 25 10 4 14 0 11 -13 -2 -10 3 -21 10 -24
10 -4 13 7 13 42 -1 40 -7 54 -39 89 -21 22 -40 38 -43 35 -3 -3 -6 2 -6 12 0
9 -4 14 -10 11 -5 -3 -10 1 -10 9 0 9 -7 16 -16 16 -8 0 -12 5 -9 10 4 6 -12
10 -39 10 -39 0 -46 -3 -46 -20z"/>
<path d="M556 203 c-4 -4 -120 -7 -259 -8 l-252 0 0 -95 0 -95 305 -3 305 -2
0 95 c0 100 3 96 -50 99 -11 1 -25 4 -31 8 -6 4 -14 4 -18 1z"/>
</g>
</svg>
